<svg viewBox="0 0 512 512" xmlns="http://www.w3.org/2000/svg"><g fill="none" stroke="#000" stroke-linejoin="round" stroke-width="20"><path d="m303.37 195.61c.11-2.15.2-4.33.25-6.54"/><path d="m303.15 168.22c.18 2.44.31 4.83.4 7.18"/><path d="m302.42 208.21c.2-2.05.38-4.13.54-6.22"/><path d="m303.15 168.22c-6.25-29.87-31.96-44.8-77.1-44.8-31.96 0-58.35 12.85-79.19 38.55l5.73-31.26h-82.31l-44.28 250.58h88.56l29.17-165.14c10.76-11.46 23.61-17.19 38.55-17.19 18.75 0 28.13 8.33 28.13 25 0 6.26-.52 12.51-1.56 18.76l-24.49 138.57h88.56l28.13-160.97"/><path d="m301.06 220.31c.49-3.98.96-8 1.36-12.11"/><path d="m303.37 195.61c.11-2.15.2-4.33.25-6.54"/><path d="m303.15 168.22c20.84-29.87 48.71-44.8 83.61-44.8s57.56 7.81 67.98 23.44c6.94 10.77 10.42 22.58 10.42 35.43s-.87 24.48-2.61 34.9l-13.02 77.62c-.35 2.09-.52 4-.52 5.73 0 9.38 5.21 14.07 15.63 14.07 7.99 0 15.11-1.73 21.36-5.21l-2.61 58.87c-16.33 13.55-34.9 20.32-55.74 20.32-47.23 0-70.85-19.79-70.85-59.39 0-6.94.69-14.41 2.08-22.4l10.94-64.08c1.04-6.25 1.56-12.5 1.56-18.76 0-16.67-9.12-25-27.35-25s-32.56 7.12-42.98 21.36"/><path d="m302.96 201.98c-.16 2.1-.34 4.17-.54 6.22"/><path d="m302.42 208.21c-.4 4.11-.86 8.13-1.36 12.11"/><path d="m303.15 168.22c.18 2.44.31 4.83.4 7.18"/><path d="m303.37 195.61c-.11 2.15-.25 4.27-.41 6.37"/><path d="m303.63 189.08c.11-4.42.09-8.97-.09-13.67"/></g></svg>