<svg viewBox="0 0 512 512" xmlns="http://www.w3.org/2000/svg"><path d="m473.71 317.16c-10.87 0-16.31-4.89-16.31-14.68 0-1.81.18-3.8.54-5.98l13.59-80.99c1.81-10.87 2.72-23.01 2.72-36.42s-3.63-25.73-10.87-36.97c-10.87-16.31-34.52-24.46-70.94-24.46s-65.5 15.59-87.25 46.75c-6.52-31.16-33.34-46.75-80.45-46.75-33.35 0-60.88 13.41-82.63 40.23l5.98-32.62h-85.88l-46.21 261.46h92.41l30.44-172.32c11.23-11.96 24.64-17.94 40.23-17.94 19.57 0 29.35 8.7 29.35 26.09 0 6.53-.54 13.05-1.63 19.57l-25.55 144.6h92.41l29.35-167.97c10.87-14.85 25.82-22.29 44.85-22.29s28.54 8.7 28.54 26.09c0 6.53-.54 13.05-1.63 19.57l-11.42 66.86c-1.45 8.34-2.17 16.13-2.17 23.38 0 41.32 24.64 61.97 73.93 61.97 21.74 0 41.13-7.06 58.16-21.2l2.72-61.42c-6.52 3.63-13.95 5.44-22.29 5.44z"/></svg>