<svg fill="none" height="46" viewBox="0 0 48 46" width="48" xmlns="http://www.w3.org/2000/svg" xmlns:xlink="http://www.w3.org/1999/xlink"><filter id="a" color-interpolation-filters="sRGB" filterUnits="userSpaceOnUse" height="41.6535" width="60.0452" x="-19.7697" y="16.1493"><feFlood flood-opacity="0" result="BackgroundImageFix"/><feBlend in="SourceGraphic" in2="BackgroundImageFix" mode="normal" result="shape"/><feGaussianBlur result="effect1_foregroundBlur_2002_17158" stdDeviation="7.65926"/></filter><filter id="b" color-interpolation-filters="sRGB" filterUnits="userSpaceOnUse" height="51.4368" width="90.3397" x="-54.613" y="-7.53303"><feFlood flood-opacity="0" result="BackgroundImageFix"/><feBlend in="SourceGraphic" in2="BackgroundImageFix" mode="normal" result="shape"/><feGaussianBlur result="effect1_foregroundBlur_2002_17158" stdDeviation="7.65926"/></filter><filter id="c" color-interpolation-filters="sRGB" filterUnits="userSpaceOnUse" height="29.4" width="79.3554" x="-49.6403" y="2.03032"><feFlood flood-opacity="0" result="BackgroundImageFix"/><feBlend in="SourceGraphic" in2="BackgroundImageFix" mode="normal" result="shape"/><feGaussianBlur result="effect1_foregroundBlur_2002_17158" stdDeviation="4.59556"/></filter><filter id="d" color-interpolation-filters="sRGB" filterUnits="userSpaceOnUse" height="29.4" width="79.579" x="-45.0451" y="20.0292"><feFlood flood-opacity="0" result="BackgroundImageFix"/><feBlend in="SourceGraphic" in2="BackgroundImageFix" mode="normal" result="shape"/><feGaussianBlur result="effect1_foregroundBlur_2002_17158" stdDeviation="4.59556"/></filter><filter id="e" color-interpolation-filters="sRGB" filterUnits="userSpaceOnUse" height="29.4" width="79.579" x="-43.5129" y="21.1781"><feFlood flood-opacity="0" result="BackgroundImageFix"/><feBlend in="SourceGraphic" in2="BackgroundImageFix" mode="normal" result="shape"/><feGaussianBlur result="effect1_foregroundBlur_2002_17158" stdDeviation="4.59556"/></filter><filter id="f" color-interpolation-filters="sRGB" filterUnits="userSpaceOnUse" height="58.852" width="74.7493" x="15.7557" y="-17.9006"><feFlood flood-opacity="0" result="BackgroundImageFix"/><feBlend in="SourceGraphic" in2="BackgroundImageFix" mode="normal" result="shape"/><feGaussianBlur result="effect1_foregroundBlur_2002_17158" stdDeviation="7.65926"/></filter><filter id="g" color-interpolation-filters="sRGB" filterUnits="userSpaceOnUse" height="25.3622" width="61.3773" x="23.5481" y="2.28368"><feFlood flood-opacity="0" result="BackgroundImageFix"/><feBlend in="SourceGraphic" in2="BackgroundImageFix" mode="normal" result="shape"/><feGaussianBlur result="effect1_foregroundBlur_2002_17158" stdDeviation="4.59556"/></filter><filter id="h" color-interpolation-filters="sRGB" filterUnits="userSpaceOnUse" height="25.3622" width="61.3773" x="23.5481" y="2.28368"><feFlood flood-opacity="0" result="BackgroundImageFix"/><feBlend in="SourceGraphic" in2="BackgroundImageFix" mode="normal" result="shape"/><feGaussianBlur result="effect1_foregroundBlur_2002_17158" stdDeviation="4.59556"/></filter><filter id="i" color-interpolation-filters="sRGB" filterUnits="userSpaceOnUse" height="63.6493" width="56.0453" x="-27.6359" y="-22.8531"><feFlood flood-opacity="0" result="BackgroundImageFix"/><feBlend in="SourceGraphic" in2="BackgroundImageFix" mode="normal" result="shape"/><feGaussianBlur result="effect1_foregroundBlur_2002_17158" stdDeviation="4.59556"/></filter><filter id="j" color-interpolation-filters="sRGB" filterUnits="userSpaceOnUse" height="64.646" width="54.8139" x="20.1155" y="-38.4147"><feFlood flood-opacity="0" result="BackgroundImageFix"/><feBlend in="SourceGraphic" in2="BackgroundImageFix" mode="normal" result="shape"/><feGaussianBlur result="effect1_foregroundBlur_2002_17158" stdDeviation="4.59556"/></filter><filter id="k" color-interpolation-filters="sRGB" filterUnits="userSpaceOnUse" height="35.3129" width="33.5414" x="24.6414" y="-11.3229"><feFlood flood-opacity="0" result="BackgroundImageFix"/><feBlend in="SourceGraphic" in2="BackgroundImageFix" mode="normal" result="shape"/><feGaussianBlur result="effect1_foregroundBlur_2002_17158" stdDeviation="4.59556"/></filter><filter id="l" color-interpolation-filters="sRGB" filterUnits="userSpaceOnUse" height="64.646" width="54.8139" x="-29.2863" y="6.00905"><feFlood flood-opacity="0" result="BackgroundImageFix"/><feBlend in="SourceGraphic" in2="BackgroundImageFix" mode="normal" result="shape"/><feGaussianBlur result="effect1_foregroundBlur_2002_17158" stdDeviation="4.59556"/></filter><filter id="m" color-interpolation-filters="sRGB" filterUnits="userSpaceOnUse" height="64.646" width="54.8139" x="-29.2863" y="6.00905"><feFlood flood-opacity="0" result="BackgroundImageFix"/><feBlend in="SourceGraphic" in2="BackgroundImageFix" mode="normal" result="shape"/><feGaussianBlur result="effect1_foregroundBlur_2002_17158" stdDeviation="4.59556"/></filter><filter id="n" color-interpolation-filters="sRGB" filterUnits="userSpaceOnUse" height="64.646" width="54.8139" x="8.24395" y="-2.41615"><feFlood flood-opacity="0" result="BackgroundImageFix"/><feBlend in="SourceGraphic" in2="BackgroundImageFix" mode="normal" result="shape"/><feGaussianBlur result="effect1_foregroundBlur_2002_17158" stdDeviation="4.59556"/></filter><filter id="o" color-interpolation-filters="sRGB" filterUnits="userSpaceOnUse" height="43.6229" width="39.4091" x="18.7132" y="10.5885"><feFlood flood-opacity="0" result="BackgroundImageFix"/><feBlend in="SourceGraphic" in2="BackgroundImageFix" mode="normal" result="shape"/><feGaussianBlur result="effect1_foregroundBlur_2002_17158" stdDeviation="4.59556"/></filter><mask id="p" height="46" maskUnits="userSpaceOnUse" width="48" x="0" y="0"><path d="m25.8416 44.9381c-.6635.8444-2.0206.3748-2.0206-.698v-10.3033c0-1.2495-1.0125-2.2619-2.2619-2.2619h-11.3761c-.91987 0-1.45626-1.0405-.91987-1.788l7.47927-10.4714c1.0706-1.4971 0-3.5781-1.8418-3.5781h-13.7673c-.919825 0-1.456217-1.0404-.919829-1.7879l9.695909-13.575583c.21322-.297276.55582-.473917.91982-.473917h28.8939c.9198 0 1.4562 1.04046.9198 1.78796l-7.4793 10.47144c-1.0706 1.4971 0 3.578 1.8418 3.578h11.3762c.9435 0 1.4734 1.0879.8897 1.8311l-21.4275 27.2717z" fill="#000"/></mask><path d="m25.9456 44.9383c-.6635.8444-2.0206.3748-2.0206-.698v-10.3034c0-1.2494-1.0124-2.2618-2.2619-2.2618h-11.3761c-.91986 0-1.45625-1.0405-.91987-1.788l7.47927-10.4714c1.0706-1.4972 0-3.5781-1.8418-3.5781h-13.76729c-.919831 0-1.456223-1.0404-.919835-1.7879l9.695925-13.5756c.2132-.297275.5558-.47391689.9198-.47391689h28.8939c.9198 0 1.4562 1.04046689.9198 1.78795689l-7.4793 10.47136c-1.0706 1.4972 0 3.5781 1.8418 3.5781h11.3762c.9435 0 1.4734 1.0879.8897 1.8311l-21.4275 27.2717z" fill="#9135ff"/><g mask="url(#p)"><g filter="url(#a)"><ellipse cx="5.50802" cy="14.7043" fill="#eee6ff" rx="5.50802" ry="14.7043" transform="matrix(.00324134 .999995 .999995 -.00324134 -4.46924 31.5157)"/></g><g filter="url(#b)"><ellipse cx="10.3995" cy="29.8514" fill="#eee6ff" rx="10.3995" ry="29.8514" transform="matrix(.00324134 .999995 .999995 -.00324134 -39.3281 7.88272)"/></g><g filter="url(#c)"><ellipse cx="5.50802" cy="30.4868" fill="#8900ff" rx="5.50802" ry="30.4868" transform="matrix(.00324134 .999995 .999995 -.00324134 -40.4673 11.3212)"/></g><g filter="url(#d)"><ellipse cx="5.50802" cy="30.5986" fill="#8900ff" rx="5.50802" ry="30.5986" transform="matrix(.00324134 .999995 .999995 -.00324134 -35.8721 29.3204)"/></g><g filter="url(#e)"><ellipse cx="5.50802" cy="30.5986" fill="#8900ff" rx="5.50802" ry="30.5986" transform="matrix(.00324134 .999995 .999995 -.00324134 -34.3398 30.4693)"/></g><g filter="url(#f)"><ellipse cx="14.0715" cy="22.0783" fill="#eee6ff" rx="14.0715" ry="22.0783" transform="matrix(.0584509 -.99829 -.99829 -.0584509 74.3486 26.8633)"/></g><g filter="url(#g)"><ellipse cx="3.47034" cy="21.5008" fill="#8900ff" rx="3.47034" ry="21.5008" transform="matrix(-.0172986 -.99985 -.99985 .0172986 75.7944 18.0627)"/></g><g filter="url(#h)"><ellipse cx="3.47034" cy="21.5008" fill="#8900ff" rx="3.47034" ry="21.5008" transform="matrix(-.0172986 -.99985 -.99985 .0172986 75.7944 18.0627)"/></g><g filter="url(#i)"><ellipse cx=".386861" cy="8.97156" fill="#8900ff" rx="4.40666" ry="29.1076" transform="matrix(.77151022 .63621692 -.63621692 .77151022 5.796252 1.803782)"/></g><g filter="url(#j)"><ellipse cx="47.5226" cy="-6.09166" fill="#8900ff" rx="4.40666" ry="29.1076" transform="matrix(.78916663 .61417915 -.61417915 .78916663 6.277979 -30.471715)"/></g><g filter="url(#k)"><ellipse cx="41.4121" cy="6.3335" fill="#00c2ff" rx="5.9715" ry="9.66515" transform="matrix(.78916663 .61417915 -.61417915 .78916663 12.620956 -24.099135)"/></g><g filter="url(#l)"><ellipse cx="-1.87921" cy="38.3321" fill="#8900ff" rx="4.40666" ry="29.1076" transform="matrix(.78916663 .61417915 -.61417915 .78916663 23.146576 9.235857)"/></g><g filter="url(#m)"><ellipse cx="-1.87921" cy="38.3321" fill="#8900ff" rx="4.40666" ry="29.1076" transform="matrix(.78916663 .61417915 -.61417915 .78916663 23.146576 9.235857)"/></g><g filter="url(#n)"><ellipse cx="35.6511" cy="29.9069" fill="#8900ff" rx="4.40666" ry="29.1076" transform="matrix(.78916663 .61417915 -.61417915 .78916663 25.884636 -15.59079)"/></g><g filter="url(#o)"><ellipse cx="38.4178" cy="32.4" fill="#00c2ff" rx="5.9715" ry="15.2974" transform="matrix(.78916663 .61417915 -.61417915 .78916663 27.999159 -16.764411)"/></g></g></svg>