<svg viewBox="0 0 500 136" xmlns="http://www.w3.org/2000/svg"><path d="m459.8 42c1.77 0 3.2-1.43 3.2-3.2v-35.6c0-1.77-1.43-3.2-3.2-3.2h-30.6c-1.77 0-3.2 1.43-3.2 3.2v35.6c0 1.77 1.43 3.2 3.2 3.2zm-20.8-27.4c0-1.44 1.16-2.6 2.6-2.6h5.8c1.44 0 2.6 1.16 2.6 2.6v12.8c0 1.44-1.16 2.6-2.6 2.6h-5.8c-1.44 0-2.6-1.16-2.6-2.6z" fill="var(--theme-secondary)"/><path d="m496.8 94h-30.6c-1.77 0-3.2 1.43-3.2 3.2v35.6c0 1.77 1.43 3.2 3.2 3.2h30.6c1.77 0 3.2-1.43 3.2-3.2v-35.6c0-1.77-1.43-3.2-3.2-3.2zm-9.8 27.4c0 1.44-1.16 2.6-2.6 2.6h-5.8c-1.44 0-2.6-1.16-2.6-2.6v-12.8c0-1.44 1.16-2.6 2.6-2.6h5.8c1.44 0 2.6 1.16 2.6 2.6z" fill="var(--theme-secondary)"/><path d="m495.49 0h-11.63c-1.12 0-2.11.71-2.46 1.77l-52.6 131.86c-.39 1.17.47 2.38 1.71 2.38h11.63c1.12 0 2.11-.71 2.46-1.77l52.6-131.86c.39-1.17-.47-2.38-1.71-2.38z" fill="var(--theme-secondary)"/><path d="m246.8 0h-37.6c-1.77 0-3.2 1.43-3.2 3.2v15.6c0 1.77 1.43 3.2 3.2 3.2h16.2c1.44 0 2.6 1.16 2.6 2.6v108.2c0 1.77 1.43 3.2 3.2 3.2h15.6c1.77 0 3.2-1.43 3.2-3.2v-129.6c0-1.77-1.43-3.2-3.2-3.2z" fill="var(--theme-primary)"/><path d="m329.8 0h-59.6c-1.77 0-3.2 1.43-3.2 3.2v129.6c0 1.77 1.43 3.2 3.2 3.2h59.6c1.77 0 3.2-1.43 3.2-3.2v-129.6c0-1.77-1.43-3.2-3.2-3.2zm-18.8 111.4c0 1.44-1.16 2.6-2.6 2.6h-16.8c-1.44 0-2.6-1.16-2.6-2.6v-86.8c0-1.44 1.16-2.6 2.6-2.6h16.8c1.44 0 2.6 1.16 2.6 2.6z" fill="var(--theme-primary)"/><path d="m410.8 0h-59.6c-1.77 0-3.2 1.43-3.2 3.2v129.6c0 1.77 1.43 3.2 3.2 3.2h59.6c1.77 0 3.2-1.43 3.2-3.2v-129.6c0-1.77-1.43-3.2-3.2-3.2zm-18.8 111.4c0 1.44-1.16 2.6-2.6 2.6h-16.8c-1.44 0-2.6-1.16-2.6-2.6v-86.8c0-1.44 1.16-2.6 2.6-2.6h16.8c1.44 0 2.6 1.16 2.6 2.6z" fill="var(--theme-primary)"/><g fill="var(--theme-tx-1)"><path d="m64.13 76h-7.02c-.67 0-1.27.36-1.5.89l-7.61 17.57-7.61-17.57c-.23-.54-.83-.89-1.5-.89h-7.02c-.91 0-1.53.77-1.22 1.5l12.35 28.5-12.35 28.5c-.32.73.31 1.5 1.22 1.5h7.02c.67 0 1.27-.36 1.5-.89l7.61-17.57 7.61 17.57c.23.54.83.89 1.5.89h7.02c.91 0 1.53-.77 1.22-1.5l-12.35-28.5 12.35-28.5c.32-.73-.31-1.5-1.22-1.5z"/><path d="m152.6 60h28.8c.88 0 1.6-.72 1.6-1.6v-17.8c0-.88-.72-1.6-1.6-1.6h-6.8c-.88 0-1.6.72-1.6 1.6v9.1c0 .72-.58 1.3-1.3 1.3h-9.4c-.72 0-1.3-.58-1.3-1.3v-39.4c0-.72.58-1.3 1.3-1.3h9.4c.72 0 1.3.58 1.3 1.3v9.1c0 .88.72 1.6 1.6 1.6h6.8c.88 0 1.6-.72 1.6-1.6v-17.8c0-.88-.72-1.6-1.6-1.6h-28.8c-.88 0-1.6.72-1.6 1.6v56.8c0 .88.72 1.6 1.6 1.6z"/><path d="m135.4 76h-28.8c-.88 0-1.6.72-1.6 1.6v56.8c0 .88.72 1.6 1.6 1.6h28.8c.88 0 1.6-.72 1.6-1.6v-56.8c0-.88-.72-1.6-1.6-1.6zm-8.4 49.7c0 .72-.58 1.3-1.3 1.3h-9.4c-.72 0-1.3-.58-1.3-1.3v-39.4c0-.72.58-1.3 1.3-1.3h9.4c.72 0 1.3.58 1.3 1.3z"/><path d="m37.6 9h9.1c.72 0 1.3.58 1.3 1.3v48.1c0 .88.72 1.6 1.6 1.6h6.8c.88 0 1.6-.72 1.6-1.6v-48.1c0-.72.58-1.3 1.3-1.3h9.1c.88 0 1.6-.72 1.6-1.6v-5.8c0-.88-.72-1.6-1.6-1.6h-30.8c-.88 0-1.6.72-1.6 1.6v5.8c0 .88.72 1.6 1.6 1.6z"/><rect height="60" rx="1.6" width="10" x="134"/><path d="m97.6 9h9.1c.72 0 1.3.58 1.3 1.3v48.1c0 .88.72 1.6 1.6 1.6h6.8c.88 0 1.6-.72 1.6-1.6v-48.1c0-.72.58-1.3 1.3-1.3h9.1c.88 0 1.6-.72 1.6-1.6v-5.8c0-.88-.72-1.6-1.6-1.6h-30.8c-.88 0-1.6.72-1.6 1.6v5.8c0 .88.72 1.6 1.6 1.6z"/><path d="m210.4 76h-30.8c-.88 0-1.6.72-1.6 1.6v5.8c0 .88.72 1.6 1.6 1.6h9.1c.72 0 1.3.58 1.3 1.3v48.1c0 .88.72 1.6 1.6 1.6h6.8c.88 0 1.6-.72 1.6-1.6v-48.1c0-.72.58-1.3 1.3-1.3h9.1c.88 0 1.6-.72 1.6-1.6v-5.8c0-.88-.72-1.6-1.6-1.6z"/><path d="m98.4 76h-28.8c-.88 0-1.6.72-1.6 1.6v56.8c0 .88.72 1.6 1.6 1.6h6.8c.88 0 1.6-.72 1.6-1.6v-24.1c0-.72.58-1.3 1.3-1.3h19.1c.88 0 1.6-.72 1.6-1.6v-29.8c0-.88-.72-1.6-1.6-1.6zm-8.4 22.7c0 .72-.58 1.3-1.3 1.3h-9.4c-.72 0-1.3-.58-1.3-1.3v-12.4c0-.72.58-1.3 1.3-1.3h9.4c.72 0 1.3.58 1.3 1.3z"/><path d="m26.4 76h-24.8c-.88 0-1.6.72-1.6 1.6v56.8c0 .88.72 1.6 1.6 1.6h24.8c.88 0 1.6-.72 1.6-1.6v-5.8c0-.88-.72-1.6-1.6-1.6h-15.1c-.72 0-1.3-.58-1.3-1.3v-15.4c0-.72.58-1.3 1.3-1.3h15.1c.88 0 1.6-.72 1.6-1.6v-5.8c0-.88-.72-1.6-1.6-1.6h-15.1c-.72 0-1.3-.58-1.3-1.3v-12.4c0-.72.58-1.3 1.3-1.3h15.1c.88 0 1.6-.72 1.6-1.6v-5.8c0-.88-.72-1.6-1.6-1.6z"/><path d="m88.29 1.24c-.17-.72-.81-1.24-1.56-1.24h-7.46c-.74 0-1.39.51-1.56 1.24l-13.25 56.8c-.23 1 .53 1.96 1.56 1.96h6.71c.74 0 1.39-.51 1.56-1.24l2.28-9.76c.14-.59.66-1 1.27-1h10.34c.6 0 1.13.42 1.27 1l2.28 9.76c.17.72.81 1.24 1.56 1.24h6.71c1.03 0 1.79-.96 1.56-1.96zm-2.45 37.76h-5.68c-.64 0-1.12-.6-.97-1.23l3.81-16.34 3.81 16.34c.15.63-.33 1.23-.97 1.23z"/><path d="m32 58.4v-33.8c0-.88-.72-1.6-1.6-1.6h-19.1c-.72 0-1.3-.58-1.3-1.3v-11.4c0-.72.58-1.3 1.3-1.3h9.4c.72 0 1.3.58 1.3 1.3v6.1c0 .88.72 1.6 1.6 1.6h6.8c.88 0 1.6-.72 1.6-1.6v-14.8c0-.88-.72-1.6-1.6-1.6h-28.8c-.88 0-1.6.72-1.6 1.6v29.8c0 .88.72 1.6 1.6 1.6h19.1c.72 0 1.3.58 1.3 1.3v15.4c0 .72-.58 1.3-1.3 1.3h-9.4c-.72 0-1.3-.58-1.3-1.3v-9.1c0-.88-.72-1.6-1.6-1.6h-6.8c-.88 0-1.6.72-1.6 1.6v17.8c0 .88.72 1.6 1.6 1.6h28.8c.88 0 1.6-.72 1.6-1.6z"/><path d="m166.6 110h6.8c.88 0 1.6-.72 1.6-1.6v-30.8c0-.88-.72-1.6-1.6-1.6h-28.8c-.88 0-1.6.72-1.6 1.6v56.8c0 .88.72 1.6 1.6 1.6h6.8c.88 0 1.6-.72 1.6-1.6v-23.4c0-.55.45-1 1-1h1.92c.41 0 .78.25.93.63l9.75 24.37c.24.61.83 1.01 1.49 1.01h7c.92 0 1.55-.93 1.21-1.78l-9.69-24.22zm-1.6-10.3c0 .72-.58 1.3-1.3 1.3h-9.4c-.72 0-1.3-.58-1.3-1.3v-13.4c0-.72.58-1.3 1.3-1.3h9.4c.72 0 1.3.58 1.3 1.3z"/></g></svg>