<svg viewBox="0 0 400 88" xmlns="http://www.w3.org/2000/svg"><g fill="#ff7fc7"><path d="m90.2 70.05a8.69 8.69 0 0 0 4.3-1l-.5 11.79a17.08 17.08 0 0 1 -11.22 4.09q-14.25 0-14.25-12a26.38 26.38 0 0 1 .42-4.51l2.2-12.89a22.83 22.83 0 0 0 .31-3.77c0-3.36-1.83-5-5.5-5a10.14 10.14 0 0 0 -8.65 4.29l-5.68 32.41h-17.82l4.93-27.88a22.84 22.84 0 0 0 .32-3.77c0-3.36-1.89-5-5.66-5a10.26 10.26 0 0 0 -7.76 3.46l-5.87 33.19h-17.77l8.91-50.41h16.51l-1.15 6.29a19.65 19.65 0 0 1 15.93-7.76q13.62 0 15.51 9 6.28-9 16.82-9t13.68 4.72a12.84 12.84 0 0 1 2.1 7.12 42.91 42.91 0 0 1 -.53 7l-2.62 15.64a7.09 7.09 0 0 0 -.1 1.16c0 1.88 1.05 2.83 3.14 2.83z"/><path d="m123.32 70.05a8.69 8.69 0 0 0 4.3-1l-.52 11.84a17.08 17.08 0 0 1 -11.22 4.09q-9.54 0-12.37-4.4a11.42 11.42 0 0 1 -1.88-6.24 35.75 35.75 0 0 1 .42-5.82l6.28-35.42h17.82l-5.87 33a7.09 7.09 0 0 0 -.1 1.16c0 1.84 1.05 2.79 3.14 2.79zm-12.89-54.05q0-6.71 3-9.8t9.27-3.09q8.81 0 8.81 7.76 0 6.6-3 9.64t-9.38 3q-8.7 0-8.7-7.51z"/><path d="m168.34 51.28q0-4.5-4.35-4.5a9.09 9.09 0 0 0 -7.18 3.22l-5.87 33.43h-17.82l8.88-50.38h16.56l-1.15 6.18a19.24 19.24 0 0 1 15.61-7.65q9.44 0 12.27 4.61a12.74 12.74 0 0 1 1.78 6.71 44 44 0 0 1 -.53 7l-2.83 16.14a7.09 7.09 0 0 0 -.1 1.16c0 1.88 1.05 2.83 3.14 2.83a8.69 8.69 0 0 0 4.3-1l-.52 11.84a17.08 17.08 0 0 1 -11.22 4.09q-14.25 0-14.25-12a26.38 26.38 0 0 1 .42-4.51l2.52-13.92a20.13 20.13 0 0 0 .34-3.25z"/><path d="m219.9 70.05a8.69 8.69 0 0 0 4.3-1l-.52 11.84a17.08 17.08 0 0 1 -11.22 4.09q-9.54 0-12.37-4.4a11.42 11.42 0 0 1 -1.88-6.24 35.75 35.75 0 0 1 .42-5.82l6.28-35.42h17.82l-5.87 33a7.09 7.09 0 0 0 -.1 1.16c0 1.84 1.05 2.79 3.14 2.79zm-12.9-54.05q0-6.71 3-9.8t9.27-3.09q8.8 0 8.81 7.76 0 6.6-3 9.64t-9.38 3q-8.7 0-8.7-7.51z"/></g><path d="m283.92 44a10.75 10.75 0 0 1 -2.1 6.39h-17.19a2.46 2.46 0 0 0 .84-2.1 2.66 2.66 0 0 0 -1.67-2.35 9.09 9.09 0 0 0 -4.3-.89q-7.86 0-7.86 4.82c0 1.25 1 2.16 2.93 2.72a46.78 46.78 0 0 0 7.13 1.36 79.32 79.32 0 0 1 8.38 1.52 14.71 14.71 0 0 1 7.13 3.93 10.63 10.63 0 0 1 2.94 7.87q0 8.7-7 13.2t-20.25 4.46q-13.32 0-18.66-4.3a11.14 11.14 0 0 1 -4.19-9.22 19.85 19.85 0 0 1 .31-3.46l17.51-.21c-.15 1 .43 1.83 1.72 2.57a11.9 11.9 0 0 0 5.72 1.1 13.67 13.67 0 0 0 5.45-.79 3 3 0 0 0 1.67-3c0-1-1-1.66-2.93-2s-4.35-.72-7.18-1a71.41 71.41 0 0 1 -8.49-1.37 14 14 0 0 1 -7.18-4 11 11 0 0 1 -2.93-8q0-9.53 7.39-14.67t21.32-5.13q21.49.03 21.49 12.55z" fill="#80e3f4"/><path d="m307.5 84.93q-12.15 0-17.5-5.45-4-4-4-10.69a27.71 27.71 0 0 1 .42-4.72l7.12-40.56 19.18-8-3 17.51h28.93l-2.65 14.81h-28.92l-2.08 11.84a17.44 17.44 0 0 0 -.42 3.56q0 6.62 6.29 6.61a6.91 6.91 0 0 0 5.6-2.83 16.79 16.79 0 0 0 3.1-7.55h17.43q-4.45 25.47-29.5 25.47z" fill="#80e3f4"/><path d="m390.51 67.32c0 1.82.93 2.73 2.78 2.73a9.45 9.45 0 0 0 4.71-1.05l-.52 11.84a17.48 17.48 0 0 1 -11.32 4.09q-11.53 0-12.79-8.39-5.24 8.4-15.41 8.39-17.19 0-17.18-14.78a32.68 32.68 0 0 1 .52-5.55l2.2-12.27q1.68-9.44 7.7-15t15.73-5.61q9.69 0 13.15 4.51l.52-3.14h15.94l-5.87 33a7.66 7.66 0 0 0 -.16 1.23zm-31-5a12.68 12.68 0 0 0 -.21 2.62 4.76 4.76 0 0 0 1.57 3.3c1 1.08 2.81 1.63 5.29 1.63a8.52 8.52 0 0 0 6.45-2.94l3.14-17.61c-.77-1.74-2.58-2.62-5.45-2.62q-8.07 0-9.43 7.76z" fill="#80e3f4"/></svg>