<svg viewBox="0 0 156 34" xmlns="http://www.w3.org/2000/svg"><path d="m16.4 21.74c.09-.16.14-.42.14-.68h-9.94c-1.05 0-1.91-.86-1.91-1.91v-12.42c0-1.05.86-1.91 1.91-1.91h15.28c1.05 0 1.47.74.94 1.65l-2.68 4.56h4.43l1.54-2.62c.95-1.62 1.01-3.49.15-5s-2.5-2.41-4.38-2.41h-15.28c-3.16 0-5.73 2.57-5.73 5.73v12.42c0 3.16 2.57 5.73 5.73 5.73h7.95z" fill="#17cde5"/><path d="m31.43 12.94c1.05 0 1.91.86 1.91 1.91v12.42c0 1.05-.86 1.91-1.91 1.91h-15.28c-1.05 0-1.47-.74-.94-1.65l2.84-4.83c.53-.91.53-2.39 0-3.29l-2.84-4.83c-.53-.91-.11-1.65.94-1.65h15.28m0-3.82h-15.28c-1.88 0-3.52.9-4.38 2.41s-.81 3.38.15 5l2.67 4.54-2.67 4.54c-.95 1.62-1.01 3.49-.15 5s2.5 2.41 4.38 2.41h15.28c3.16 0 5.73-2.57 5.73-5.73v-12.42c0-3.16-2.57-5.73-5.73-5.73z" fill="#ff66e2"/><g fill="#fff"><rect height="14.33" rx=".6" width="3.82" x="71.55" y="12.7"/><rect height="3.34" rx=".6" width="3.82" x="71.55" y="6.97"/><rect height="14.33" rx=".6" width="3.82" x="98.3" y="12.7"/><rect height="3.34" rx=".6" width="3.82" x="98.3" y="6.97"/><path d="m46.84 12.7c-.33 0-.6.27-.6.6v13.13c0 .33.27.6.6.6h2.63c.33 0 .6-.27.6-.6v-9.91c0-.26.21-.48.48-.48h3.82c.26 0 .48.21.48.48v9.91c0 .33.27.6.6.6h2.63c.33 0 .6-.27.6-.6v-9.91c0-.26.21-.48.48-.48h3.82c.26 0 .48.21.48.48v9.91c0 .33.27.6.6.6h2.63c.33 0 .6-.27.6-.6v-13.13c0-.33-.27-.6-.6-.6h-19.82z"/><path d="m80.27 12.7c-.33 0-.6.27-.6.6v13.13c0 .33.27.6.6.6h2.63c.33 0 .6-.27.6-.6v-9.91c0-.26.21-.48.48-.48h5.73c.26 0 .48.21.48.48v9.91c0 .33.27.6.6.6h2.63c.33 0 .6-.27.6-.6v-13.13c0-.33-.27-.6-.6-.6h-13.13z"/><path d="m120.75 15.45v-2.15c0-.33-.27-.6-.6-.6h-13.13c-.33 0-.6.27-.6.6v7.64c0 .33.27.6.6.6h9.43c.26 0 .48.21.48.48v1.19c0 .26-.21.48-.48.48h-9.43c-.33 0-.6.27-.6.6v2.15c0 .33.27.6.6.6h13.13c.33 0 .6-.27.6-.6v-7.64c0-.33-.27-.6-.6-.6h-9.43c-.26 0-.48-.21-.48-.48v-1.19c0-.26.21-.48.48-.48h9.43c.33 0 .6-.27.6-.6z"/><path d="m137.94 15.45v-2.15c0-.33-.27-.6-.6-.6h-5.61c-.26 0-.48-.21-.48-.48v-3.7c0-.33-.27-.6-.6-.6h-2.63c-.33 0-.6.27-.6.6v3.7c0 .26-.21.48-.48.48h-2.75c-.33 0-.6.27-.6.6v2.15c0 .33.27.6.6.6h2.75c.26 0 .48.21.48.48v9.91c0 .33.27.6.6.6h8.36c.33 0 .6-.27.6-.6v-2.15c0-.33-.27-.6-.6-.6h-4.66c-.26 0-.48-.21-.48-.48v-6.69c0-.26.21-.48.48-.48h5.61c.33 0 .6-.27.6-.6z"/><path d="m141.4 12.7c-.33 0-.6.27-.6.6v2.15c0 .33.27.6.6.6h9.43c.26 0 .48.21.48.48v1.19c0 .26-.21.48-.48.48h-9.43c-.33 0-.6.27-.6.6v7.64c0 .33.27.6.6.6h13.13c.33 0 .6-.27.6-.6v-13.13c0-.33-.27-.6-.6-.6h-13.13zm9.43 10.99h-5.73c-.26 0-.48-.21-.48-.48v-1.19c0-.26.21-.48.48-.48h5.73c.26 0 .48.21.48.48v1.19c0 .26-.21.48-.48.48z"/></g></svg>