<svg viewBox="0 0 480 240" xmlns="http://www.w3.org/2000/svg"><path d="m38.16 38.76c.58 1.02.68 1.8.68 1.94 0 3.01-3.01 3.25-3.45 3.25h-8.02c-1.8 0-2.87-1.12-3.4-2.09l-6.61-10.83h-1.7v9.28c0 1.85-1.26 3.64-3.59 3.64h-6.75c-2.19 0-3.6-1.51-3.6-3.64v-34.05c0-2.58 1.03-4.81 3.99-4.81h29.05c1.85 0 4.13 1.12 4.13 3.94v21.62c0 2.67-2.09 4.03-4.13 4.03h-1.31l4.71 7.73zm-3.4-34.5h-29.05c-.83 0-1.17.34-1.17 1.99v34.06c0 .53.1.83.78.83h6.75c.49 0 .83-.29.83-.83v-12.1h6.12l7.38 12.29c.24.49.58.63.97.63h8.02c.44 0 .63-.19.63-.44 0-.1-.05-.24-.1-.34l-7.38-12.15h6.22c.83 0 1.31-.39 1.31-1.21v-21.6c0-.73-.44-1.12-1.31-1.12zm-21.86 7.53h14.72v8.65h-14.72zm11.95 2.77h-9.18v3.06h9.18z" fill="#80e2f3"/><path d="m79.52 34.49v5.59c0 2.09-1.51 3.6-3.59 3.6h-27.16c-2.33 0-4.03-1.65-4.03-4.03v-24.89c0-2.53 1.89-4.03 4.08-4.03h26.72c2.33 0 3.98 1.7 3.98 3.98v14.38c0 1.07-.34 2.09-1.02 2.82.63.63 1.02 1.46 1.02 2.58zm-30.75 6.41h27.16c.58 0 .83-.29.83-.83v-5.59c0-.53-.24-.78-.83-.78h-19.97v-2.96h19.58c.87 0 1.21-.44 1.21-1.26v-14.77c0-.78-.39-1.17-1.21-1.17h-26.72c-.83 0-1.26.39-1.26 1.21v24.88c0 .83.39 1.26 1.21 1.26zm19.48-16.57h-12.29v-3.64h12.29z" fill="#80e2f3"/><path d="m85.29 19.77v-5.59c0-2.09 1.51-3.59 3.59-3.59h27.74c2.33 0 4.03 1.65 4.03 4.03v24.88c0 2.53-1.9 4.03-4.08 4.03h-27.3c-2.28 0-3.98-1.7-3.98-3.98v-14.38c0-1.07.34-2.09 1.02-2.82-.63-.63-1.02-1.46-1.02-2.57zm31.34-6.41h-27.74c-.58 0-.78.29-.78.83v5.59c0 .53.24.78.78.78h20.5v2.82h-20.11c-.83 0-1.17.44-1.17 1.26v14.92c0 .78.39 1.17 1.17 1.17h27.3c.78 0 1.26-.39 1.26-1.21v-24.9c0-.83-.44-1.26-1.21-1.26zm-20.06 16.57h12.83v3.64h-12.83z" fill="#80e2f3"/><path d="m130.48 43.62c-1.99 0-4.08-1.31-4.08-4.03v-24.83c0-2.53 1.85-4.03 4.08-4.03h25.99c2.33 0 3.64 1.8 3.64 3.64v6.27c0 2.33-1.8 3.64-3.64 3.64h-16.08v5.83h16.08c2.09 0 3.64 1.55 3.64 3.64v6.22c0 2.14-1.55 3.64-3.64 3.64h-25.99zm26.82-9.86c0-.58-.29-.83-.83-.83h-18.9v-11.47h18.9c.53 0 .83-.24.83-.83v-6.27c0-.58-.29-.87-.83-.87h-25.99c-.87 0-1.26.44-1.26 1.26v24.83c0 .83.39 1.21 1.26 1.21h25.99c.53 0 .83-.19.83-.83v-6.22z" fill="#80e2f3"/><path d="m184.23 24.04v6.12h7.34c2.19 0 3.35 1.8 3.35 3.6v6.17c0 2.04-1.46 3.55-3.35 3.55h-17.2c-1.89 0-3.35-1.55-3.35-3.55v-15.89h-2.67c-1.99 0-3.4-1.46-3.4-3.55v-6.36c0-1.75 1.17-3.55 3.35-3.55h2.72v-6.22c0-1.75 1.21-3.6 3.35-3.6h6.46c1.99 0 3.4 1.51 3.4 3.55v6.27h9.67c1.46 0 3.45.97 3.45 3.55v6.32c0 2.43-1.65 3.6-3.45 3.6h-9.67zm10.49-9.91c0-.49-.24-.78-.83-.78h-12.34v-9.03c0-.44-.15-.78-.73-.78h-6.46c-.44 0-.73.34-.73.83v8.99h-5.34c-.49 0-.68.29-.68.78v6.36c0 .53.19.78.73.78h5.3v18.66c0 .49.29.78.73.78h17.2c.49 0 .68-.29.68-.78v-6.17c0-.53-.19-.78-.68-.78h-10.01v-11.71h12.34c.58 0 .83-.24.83-.83v-6.32z" fill="#80e2f3"/><path d="m231.11 42.75c-.92 0-2.09-.24-2.53-1.02-.73.63-1.75 1.02-2.77 1.02h-15.94c-2.48 0-3.94-1.85-3.94-4.03v-32.27c0-3.06 2.28-4.18 4.32-4.18h32.45c2.04 0 4.32 1.12 4.32 4.18v32.26c0 2.19-1.46 4.03-3.94 4.03h-12zm-20.84-37.75c-1.41 0-1.6.63-1.6 1.46v32.26c0 .92.44 1.26 1.21 1.26h16.18c.78 0 1.31-.39 1.31-1.26v-22.45c0-.83-.44-1.21-1.21-1.21h-5.73c-.83 0-1.21.39-1.21 1.17v16.18h-2.96v-19.79h20.5v19.77h-6.41c-.54 0-.83.29-.83.78v6.07c0 .49.29.73.83.73h12.78c.78 0 1.21-.39 1.21-1.26v-32.26c0-.83-.24-1.46-1.6-1.46h-32.45zm23.76 24.68v-14.48h-4.13c.15.19.15.49.15.83v13.89c.19-.15.49-.24.83-.24h3.16z" fill="#f1f1f1"/><path d="m259.93 43.72c-2.14 0-4.03-1.51-4.03-3.98v-12.78c0-2.09 1.51-3.6 3.6-3.6h6.8c1.8 0 3.59 1.26 3.59 3.6v3.01h7.34v-24.93c0-1.6.97-3.69 3.59-3.69h6.75c2.33 0 3.59 1.8 3.59 3.69v34.69c0 2.48-1.89 3.98-4.03 3.98h-27.21zm28.47-38.67c0-.63-.29-.87-.83-.87h-6.75c-.58 0-.78.24-.78.87v27.69h-12.97v-5.78c0-.58-.29-.78-.78-.78h-6.8c-.53 0-.78.19-.78.78v12.78c0 .78.39 1.21 1.21 1.21h27.21c.78 0 1.26-.44 1.26-1.21v-34.7z" fill="#e5ee8c"/><path d="m301 43.72c-1.85 0-3.6-1.17-3.6-3.55v-6.22c0-1.8 1.26-3.45 3.6-3.45h19.19v-2.19h-17.39c-3.11 0-5.2-1.9-5.2-4.96v-16.85c0-3.11 2.09-5.15 5.2-5.15h28.23c2.33 0 3.59 1.8 3.59 3.69v6.02c0 2.43-2.09 3.35-3.59 3.35h-19.43v2.19h17.98c2.92 0 5.1 1.8 5.1 4.91v17.05c0 3.11-2.04 5.15-5.15 5.15h-28.52zm30.9-22.2c0-1.51-.78-2.23-2.33-2.23h-20.79v-7.53h22.25c.53 0 .83-.19.83-.68v-6.02c0-.58-.29-.87-.83-.87h-28.23c-1.6 0-2.38.78-2.38 2.33v16.86c0 1.6.83 2.33 2.38 2.33h20.21v7.48h-22.01c-.58 0-.78.29-.78.78v6.22c0 .53.19.78.78.78h28.52c1.6 0 2.38-.83 2.38-2.38v-17.05z" fill="#e5ee8c"/><path d="m364.88 3.73c1.02-2.14 2.72-2.28 3.84-2.28h7.19c1.7 0 3.69 1.02 3.69 3.3 0 .29-.1 1.02-.54 2.04-.24.49-.53 1.17-.92 1.94-.68 1.51-1.7 3.4-2.67 5.39l-3.84 7.43 4.28 8.55 2.96 6.02c.39.88.73 1.6.92 2.19.49 1.07.63 1.85.63 2.04 0 2.23-1.94 3.35-3.69 3.35h-7.34c-1.65 0-2.87-.44-3.79-2.28l-5.25-12.53-5.25 12.53c-.92 1.89-2.67 2.28-3.89 2.28h-7.34c-1.85 0-3.64-1.02-3.64-3.35 0-.19.15-.97.58-2.04.24-.58.58-1.31.97-2.19.78-1.65 1.85-3.79 2.92-6.02l4.28-8.55c-2.24-4.28-4.42-8.55-6.51-12.87-.39-.78-.68-1.41-.92-1.94-.44-1.02-.53-1.75-.53-1.99 0-2.19 2.04-3.3 3.69-3.3h7.29c1.26 0 2.82.24 3.79 2.28l4.57 10.93 4.52-10.93zm12.58 36.05-8.99-18.22 8.16-16.18c.1-.24.15-.44.15-.63 0-.34-.24-.49-.88-.49h-7.19c-.83 0-1.02.05-1.31.68l-6.17 12.83h-1.85l-6.12-12.83c-.34-.63-.49-.68-1.26-.68h-7.29c-.58 0-.87.15-.87.49 0 .19.05.39.19.63l8.11 16.18-8.94 18.22c-.15.19-.15.44-.15.58 0 .39.29.58.83.58h7.34c.73 0 1.07-.24 1.31-.73l6.85-14.33h1.89l6.85 14.33c.24.58.44.73 1.26.73h7.34c.54 0 .88-.19.88-.58 0-.15-.05-.34-.15-.58z" fill="#e5ee8c"/><path d="m431.74 4.22v26.92c0 2.04-1.46 3.55-3.55 3.55h-5.49c-.24 0-.49-.05-.73-.1v4.37c0 2.14-1.46 3.94-3.94 3.94h-9.08c-1.89 0-3.11-.92-3.11-3.45v-6.56c0-2.04 1.12-3.11 2.96-3.16v-12.92h-4.76v22.69c0 2.53-1.55 3.35-3.35 3.35h-5.93c-2.04 0-3.5-1.46-3.5-3.5v-22.59c-1.8 0-2.87-1.07-2.87-3.4v-6.12c0-2.38 1.26-3.5 2.87-3.5 0-1.99 1.6-3.11 3.5-3.11h6.22c2.19 0 3.45 1.46 3.45 3.11h13.6c.44 0 .83 0 1.17.15.15-1.89 1.55-3.25 3.5-3.25h5.54c2.48 0 3.5 2.09 3.5 3.6zm-12.54 3.45c0-.78-.39-1.21-1.17-1.21h-16.28v-2.23c0-.53-.29-.83-.78-.83h-6.22c-.58 0-.78.29-.78.78v2.28h-2.04c-.58 0-.83.29-.83.78v6.12c0 .49.24.73.83.73h2.04v25.26c0 .53.24.78.78.78h5.93c.49 0 .78-.24.78-.78v-25.27h9.96v18.36h-2.19c-.53 0-.78.24-.78.78v6.12c0 .58.24.83.78.83h8.79c.78 0 1.17-.39 1.17-1.21v-31.29zm9.81-3.45c0-.53-.24-.83-.78-.83h-5.54c-.58 0-.78.29-.78.78v27.01c0 .53.19.73.78.73h5.49c.58 0 .83-.19.83-.78z" fill="#f1f1f1"/><path d="m479.4 23.22v15.5c0 2.43-1.8 4.13-4.32 4.13h-32.31c-1.99 0-3.45-1.46-3.45-3.5v-6.27c0-.92.34-1.75.88-2.33-.58-.68-.92-1.55-.92-2.62v-12.58c0-.78.24-1.46.58-1.99-.34-.58-.53-1.21-.53-1.94v-6.02c0-1.94 1.51-3.45 3.45-3.45h31.48c2.24 0 3.89 1.65 3.89 3.89v7.68c0 2.14-1.51 3.79-3.5 3.79h-6.32c-1.55 0-2.82-.97-3.3-2.38h-12.24c0 .15.05.34.05.49v3.74h22.3c3.94 0 4.28 2.96 4.28 3.89zm-2.72 0c0-.83-.24-1.17-1.55-1.17h-25.02v-6.46c0-.49-.29-.78-.78-.78h-6.61c-.53 0-.73.24-.73.73v12.58c0 .78.39 1.17 1.17 1.17h25.6v3.01h-25.99c-.53 0-.73.29-.73.78v6.27c0 .53.19.78.73.78h32.31c.97 0 1.6-.44 1.6-1.41zm-1.26-17.2c0-.73-.39-1.17-1.17-1.17h-31.48c-.49 0-.73.29-.73.73v6.02c0 .53.24.78.78.78h24.68v1.31c0 .53.24 1.07.83 1.07h6.32c.54 0 .78-.53.78-1.07v-7.68z" fill="#f1f1f1"/><path d="m42.83 78.38c.58.78 1.26 1.8 1.65 2.87l.24.44v.58c0 .19 0 .34-.05.53.29.58.44 1.26.44 1.89v4.57c0 1.51-.39 2.48-1.07 3.01v13.6c0 1.55-1.02 3.64-3.55 3.64h-3.93c-1.26 0-2.53-.63-3.21-1.8h-10.79c-.19 0-.34 0-.53-.05-.63.97-1.7 1.46-2.96 1.46h-2.24c-.44 0-.83-.05-1.17-.15-.63.39-1.36.63-2.14.63h-3.98c-.83 0-1.55-.24-2.14-.63-.34.1-.73.15-1.12.15h-2.33c-2.04 0-3.64-1.41-3.64-3.64l.19-11.51c0-.53.1-.92.24-1.31-.34-.63-.49-1.36-.49-2.14v-4.37c0-.68.15-1.75.87-2.58l.49-.63c-.92-.73-1.36-1.89-1.36-3.16v-5.59c0-.83.15-1.89 1.02-2.87l4.32-5c.78-.88 1.94-1.41 3.16-1.41h5.2c1.46 0 3.3 1.12 3.3 3.06 0 .24-.05.88-.53 1.7h.68c.34-1.51 1.51-2.82 3.5-2.82h4.08c.49-1.07 1.51-1.89 3.16-1.89h5.05c1.65 0 2.67.87 3.16 1.89h4.91c2.04 0 3.6 1.55 3.6 3.6v4.37c0 1.55-.88 2.77-2.19 3.35l.15.19zm-23.61 4.57c-.1-.49-.34-.78-.88-.78h-3.21c-.39 0-.68.24-.68.63l.44 2.82h-4.86l9.91-12.49c.1-.15.15-.24.15-.34 0-.19-.15-.29-.44-.29h-5.34c-.34 0-.73.15-.97.53l-1.85 2.24h-2.82l5.64-6.9c.1-.15.15-.29.15-.39 0-.19-.15-.29-.49-.29h-5.2c-.44 0-.78.24-1.02.49l-4.37 5c-.29.34-.34.63-.34 1.02v5.59c0 .83.39 1.26 1.21 1.26h2.53l-3.45 4.28c-.19.24-.29.49-.29.83v4.37c0 .92.39 1.26 1.21 1.26h4.47v14.19c0 .63.29.83.83.83h3.98c.53 0 .83-.19.83-.83v-14.19h5.3c.39 0 .68-.24.68-.63v-.15l-1.12-8.07zm-12.83 10.35h-2.28c-.54 0-.78.19-.78.73l-.19 11.51c0 .58.24.83.83.83h2.33c.49 0 .83-.24.83-.83l.1-11.42c0-.63-.24-.83-.83-.83zm12.54 0h-2.28c-.53 0-.78.19-.78.73l.15 11.51c0 .58.24.83.83.83h2.24c.58 0 .83-.24.83-.83l-.15-11.42c0-.63-.29-.83-.83-.83zm22.35-23.66h-7.24v-1.02c0-.53-.34-.87-.83-.87h-5.05c-.53 0-.83.34-.83.83v1.07h-6.41c-.49 0-.78.29-.78.83v4.37c0 .53.29.78.83.78h3.64l-4.86 6.27c-.1.19-.15.29-.15.39 0 .19.15.24.49.24h5.44c.44 0 .73-.15.97-.44l4.91-6.46h9.86c.49 0 .78-.24.78-.78v-4.37c0-.53-.29-.83-.78-.83zm.24 14.14h-20.65c-.54 0-.78.29-.78.83v4.66c0 .58.24.78.83.78h14.82v15.94c0 .44.24.78.83.78h3.93c.49 0 .78-.34.78-.88v-15.84h.24c.53 0 .83-.19.83-.78v-4.57c0-.63-.29-.92-.83-.92zm-8.5 7.77h-10.49c-.83 0-1.21.39-1.21 1.26v10.93c0 .83.39 1.17 1.26 1.17h10.45c.83 0 1.21-.39 1.21-1.17v-10.93c0-.87-.39-1.26-1.21-1.26zm-6.7 5.2h2.91v3.16h-2.91zm15.4-14.87-2.72-4.08c-.19-.39-.49-.63-.92-.63h-5.3c-.34 0-.53.15-.53.34 0 .15.05.29.15.44l2.58 4.13c.24.29.53.44.97.44h5.39c.34 0 .58-.05.58-.24 0-.1-.1-.19-.19-.39z" fill="#f1f1f1"/><path d="m95.25 72.79c.19.44.29.92.29 1.46v4.96c0 .49-.1.87-.24 1.26.24.44.34.97.34 1.55v2.58c0 1.12-.39 2.04-1.07 2.62.05.24.1.53.1.88v5.64c0 .15 0 .29-.05.49.58.63.88 1.51.97 2.62 0 1.07-.05 2.57-.53 3.55.39.63.58 1.41.58 2.14v2.92c0 2.04-1.55 3.6-3.6 3.6h-12.97c-.88 0-1.65-.19-2.33-.63-.24.1-.49.15-.83.15-4.32.19-9.04.58-13.36.58-.53 0-1.02-.1-1.41-.24-.49.24-1.12.39-1.65.39h-5.2c-.44 0-3.84-.29-3.5-3.69.39-3.55 1.12-8.16 1.26-11.66.24-3.45 0-8.02 0-11.51 0-.29 0-.53.05-.73-.53-.68-.88-1.51-.88-2.48v-4.96c0-.53.1-.97.24-1.41-.24-.53-.39-1.07-.39-1.75v-1.99c0-2.09 1.55-3.64 3.6-3.64h17c.63 0 1.17.15 1.65.34.49-.19 1.02-.34 1.65-.34h17.05c2.04 0 3.6 1.55 3.6 3.64v1.99c0 .68-.1 1.21-.39 1.7zm-3.21 28.86h-7.19v-1.31l7-.83c.54 0 .83-.39.83-.92v-2.04c0-.49-.24-.73-.68-.73l-7.14.78v-1.65h5.78c.83 0 1.21-.39 1.21-1.21v-5.64c0-.83-.39-1.26-1.21-1.26h-8.02v-1.41h9.38c.58 0 .87-.29.87-.83v-2.58c0-.53-.29-.83-.83-.83h-13.89v-.34c0-.58-.24-.83-.78-.83h2.09c.58 0 .88-.24.88-.83v-3.21h6.51v3.21c0 .58.24.83.83.83h4.18c.58 0 .88-.24.88-.83v-4.96c0-.78-.44-1.21-1.26-1.21h-15.84c-.83 0-1.21.39-1.21 1.21v4.96c0 .58.29.83.83.83h-3.74c.58 0 .83-.24.83-.83v-4.96c0-.78-.39-1.21-1.21-1.21h-15.84c-.83 0-1.21.39-1.21 1.21v4.96c0 .58.24.83.83.83h4.23c.53 0 .83-.24.83-.83v-3.21h6.46v3.21c0 .58.29.83.83.83h3.84c-.53 0-.78.24-.78.83v.34h-14.28c-.78 0-1.12.39-1.12 1.21v11.71l-1.31 11.76c0 .44.24.58.73.58h5.2c.49 0 .83-.19.87-.73l1.51-10.79h1.55v6.95h-.68c-.53 0-.78.29-.78.83v2.82c0 .49.19.83.68.83l13.17-.63c.49-.05.83-.29.83-.87v-2.72c0-.49-.29-.83-.78-.78l-5.34.24v-1.6h5.3c.49 0 .83-.24.83-.83v-1.85c0-.49-.34-.83-.83-.83h-5.3v-1.55h7.29v10.11c0 .83.44 1.21 1.26 1.21h12.97c.53 0 .83-.29.83-.83v-2.92c0-.63-.29-.87-.83-.87zm-20.36-33.38h-17c-.54 0-.83.29-.83.83v1.99c0 .58.29.83.83.83h17c.53 0 .83-.24.83-.83v-1.99c0-.53-.29-.83-.83-.83zm-6.71 10.98-.49-1.8c-.15-.44-.34-.63-.78-.63h-1.8c-.49 0-.68.19-.68.53 0 .1 0 .15.05.24l.49 1.8c.1.44.39.63.78.63h1.85c.44 0 .63-.19.63-.49 0-.1 0-.19-.05-.29zm-2.87 5.78h3.16v1.8h-3.16zm0 4.86h3.16v2.04h-3.16zm9.96-4.86h3.6v1.8h-3.6zm0 4.86h3.6v2.04h-3.6zm19.97-21.62h-17.05c-.58 0-.83.29-.83.83v1.99c0 .58.24.83.83.83h17c.58 0 .87-.24.87-.83v-1.99c0-.53-.29-.83-.83-.83zm-6.61 10.98-.49-1.8c-.15-.44-.34-.63-.73-.63h-1.9c-.44 0-.68.19-.68.49 0 .1 0 .19.05.29l.54 1.8c.1.44.39.63.83.63h1.8c.44 0 .63-.19.63-.53 0-.1 0-.15-.05-.24zm-2.82 10.64h3.16v2.04h-3.16z" fill="#f1f1f1"/><path d="m145.25 87.37v7.24c0 1.75-1.12 3.11-2.72 3.4v6.22c0 2.28-1.65 3.89-3.94 3.89h-18.46c-1.12 0-1.99-.29-2.72-.78-.58.53-1.41.87-2.38.87h-6.46c-2.04 0-3.5-1.46-3.5-3.5v-23.22c-1.75-.24-3.01-1.65-3.01-3.45v-6.07c0-1.9 1.31-3.3 3.11-3.5.39-1.51 1.7-2.53 3.4-2.53h6.46c1.65 0 2.96 1.02 3.35 2.53h5.3c2.04 0 3.45 1.51 3.45 3.5v6.02c0 2.04-1.41 3.45-3.45 3.45h-5.2v2.48c.49-.15 1.02-.24 1.6-.24h9.08v-11.27c0-2.33 1.51-3.89 3.79-3.89h8.65c2.04 0 3.5 1.46 3.5 3.45v5.88c0 1.9-1.31 3.3-3.21 3.45v2.57c1.94.1 3.35 1.55 3.35 3.5zm-21.57-16.18h-7.87v-1.7c0-.58-.24-.83-.78-.83h-6.46c-.53 0-.83.24-.83.78v1.75h-2.19c-.58 0-.78.29-.78.78v6.07c0 .53.29.78.78.78h2.19v25.9c0 .58.29.83.83.83h6.46c.53 0 .78-.29.78-.83v-25.9h7.87c.53 0 .83-.24.83-.83v-6.02c0-.49-.29-.78-.83-.78zm18.07 15.35h-2.53v-7.92h2.38c.53 0 .78-.24.78-.78v-5.88c0-.49-.24-.78-.78-.78h-8.65c-.78 0-1.12.39-1.12 1.21v13.94h-11.76c-1.31 0-1.55.58-1.55 1.36v16.28c0 .83.24 1.41 1.6 1.41h18.46c.83 0 1.21-.39 1.21-1.17v-8.84h1.89c.54 0 .83-.24.83-.78v-7.24c0-.53-.29-.83-.78-.83zm-15.79 6.75h5.64v4.47h-5.64z" fill="#f1f1f1"/><path d="m183.93 109.23c-2.14 0-3.64-1.51-3.64-3.64v-10.98h-8.84v10.98c0 1.85-1.26 3.64-3.6 3.64h-6.75c-2.38 0-3.59-1.8-3.59-3.64v-35.27c0-2.14 1.46-3.59 3.59-3.59h6.75c2.04 0 3.6 1.51 3.6 3.59v10.74h8.84v-10.74c0-2.09 1.51-3.59 3.6-3.59h6.8c2.09 0 3.64 1.51 3.64 3.59v35.27c0 1.85-1.31 3.64-3.64 3.64h-6.75zm7.58-38.92c0-.58-.24-.78-.83-.78h-6.8c-.54 0-.78.19-.78.78v13.56h-14.43v-13.56c0-.58-.34-.78-.83-.78h-6.75c-.58 0-.78.19-.78.78v35.27c0 .58.19.83.78.83h6.75c.49 0 .83-.29.83-.83v-13.8h14.43v13.8c0 .58.24.83.83.83h6.75c.58 0 .83-.29.83-.83z" fill="#ff7fc6"/><path d="m226.44 80.42v25.22c0 2.38-1.85 3.64-3.69 3.64h-6.8c-2.04 0-3.55-1.51-3.55-3.6v-25.26h-8.94c-1.51 0-3.59-.92-3.59-3.55v-6.56c0-2.14 1.46-3.59 3.59-3.59h31.87c1.55 0 3.64.97 3.64 3.59v6.46c0 2.38-1.8 3.64-3.64 3.64h-8.89zm9.76-10.11c0-.58-.29-.78-.87-.78h-31.87c-.58 0-.78.19-.78.78v6.56c0 .53.19.73.78.73h11.71v28.08c0 .53.24.78.78.78h6.8c.63 0 .87-.24.87-.83v-28.03h11.71c.58 0 .87-.19.87-.83z" fill="#ff7fc6"/><path d="m275.95 109.23c-2.14 0-3.64-1.51-3.64-3.64v-7.92l-1.6 3.55c-.73 1.36-2.04 1.99-3.35 1.99h-6.27c-1.17 0-2.67-.58-3.4-2.09l-1.07-2.67v7.14c0 1.85-1.31 3.64-3.64 3.64h-6.17c-2.09 0-3.6-1.51-3.6-3.64v-34.93c0-2.67 2.04-3.94 3.98-3.94h6.12c1.41 0 2.67.68 3.35 2.04l7.82 15.3 7.63-15.3c.78-1.51 2.19-2.04 3.4-2.04h6.17c2.28 0 3.98 1.7 3.98 3.94v34.93c0 1.85-1.26 3.64-3.6 3.64h-6.12zm6.9-38.58c0-.73-.39-1.12-1.17-1.12h-6.17c-.49 0-.73.15-.92.49l-10.11 20.31-10.3-20.31c-.2-.34-.44-.49-.88-.49h-6.12c-.78 0-1.17.34-1.17 1.12v34.93c0 .58.24.83.78.83h6.17c.53 0 .83-.24.83-.83v-18.56l6.36 12.88c.19.34.53.49.92.49h6.27c.44 0 .73-.15.92-.49l6.85-12.88v18.56c0 .58.24.83.83.83h6.12c.53 0 .78-.24.78-.83v-34.93z" fill="#ff7fc6"/><path d="m296.24 108.79c-2.33 0-4.03-1.7-4.03-4.03v-34.45c0-2.09 1.51-3.59 3.6-3.59h6.8c1.8 0 3.6 1.26 3.6 3.59v24.63h18.02c2.09 0 3.64 1.55 3.64 3.64v6.61c0 2.33-1.85 3.59-3.69 3.59h-27.94zm28.81-10.2c0-.53-.29-.83-.83-.83h-20.84v-27.45c0-.58-.29-.78-.78-.78h-6.8c-.54 0-.78.19-.78.78v34.45c0 .83.39 1.21 1.21 1.21h27.94c.58 0 .87-.19.87-.78v-6.61z" fill="#ff7fc6"/><path d="m380.49 77.99c0 1.12-.29 2.04-1.02 2.67.24.49.29 1.07.29 1.7v6.56c0 2.09-1.51 3.94-3.89 3.94h-10.15v.97c0 .97-.1 1.17-.19 1.41h11.12c2.28 0 3.55 1.75 3.55 3.55v5.83c0 2.23-1.8 3.5-3.59 3.5h-34.3c-1.99 0-4.28-.97-4.28-4.13v-19.82c0-1.41.53-2.53 1.41-3.25-.88-.63-1.41-1.65-1.41-2.87v-6.07c0-1.75 1.21-3.55 3.5-3.55h8.07c.29-1.07 1.21-2.53 3.35-2.53h7c2.14 0 3.01 1.46 3.35 2.53h13.65c2.04 0 3.55 1.51 3.55 3.55v6.02zm-2.72-6.02c0-.49-.34-.78-.83-.78h-16.23v-1.7c0-.53-.24-.83-.78-.83h-7c-.58 0-.83.29-.83.78v1.75h-10.59c-.58 0-.78.29-.78.78v6.07c0 .53.19.78.78.78h10.59v3.64h-9.81c-1.12 0-1.55.49-1.55 1.46v20.07c0 1.07.44 1.41 1.55 1.41h34.3c.53 0 .83-.24.83-.78v-5.83c0-.58-.29-.83-.78-.83h-27.01v-7.82h4.08v4.57c0 .53.24.73.83.73h7.53c.53 0 .87-.39.87-.92v-4.37h12.92c.68 0 1.17-.44 1.17-1.21v-7.09c0-.49-.29-.78-.83-.78h-7.19c-.54 0-.78.29-.78.73v.97h-7.53v-3.94h16.23c.49 0 .83-.24.83-.83v-6.02z" fill="#f1f1f1"/><path d="m429.95 80.66c.63.63.88 1.55.88 2.53v3.98c0 1.07-.39 2.33-1.02 3.11.63.63 1.02 1.55 1.02 2.53v5c0 2.33-1.8 3.59-3.64 3.59h-3.98v4.57c0 2.28-1.8 3.55-3.59 3.55h-6.07c-1.51 0-3.64-.92-3.64-3.55v-15.94c-.68.44-1.75.68-2.48.68h-4.37v15.21c0 2.04-1.55 3.6-3.6 3.6h-6.32c-2.09 0-3.6-1.51-3.6-3.6v-13.12c-1.85-.15-3.25-1.07-3.25-3.21 0-.15.1-.78.34-1.8l5.39-20.41c.34-1.21 1.51-2.62 3.4-2.62h6.9c.49 0 1.7.15 2.38.49.39-.19.92-.29 1.46-.29h6.22c2.04 0 3.45 1.41 3.45 3.45h12.44c2.09 0 3.59 1.51 3.59 3.6v5.34c0 1.51-.68 2.77-1.89 3.3zm-27.64-13.07h-6.9c-.34 0-.58.19-.73.58l-5.54 21.09c-.05.1-.05.24-.05.34 0 .29.15.44.63.44h2.58v15.89c0 .53.29.83.83.83h6.32c.49 0 .78-.29.78-.83v-18.07c0-.49-.29-.83-.78-.83h-1.6l5-18.61c.05-.15.05-.24.05-.34 0-.34-.2-.49-.58-.49zm26.72 4.42c0-.58-.24-.83-.78-.83h-15.84l.58-2.62c.05-.1.05-.15.05-.24 0-.34-.24-.58-.68-.58h-6.22c-.39 0-.68.24-.78.63l-4.47 18.75v.29c0 .34.19.49.68.49h6.41c.44 0 .68-.15.78-.53l2.14-8.89h1.8v27.5c0 .53.24.78.83.78h6.07c.49 0 .83-.24.83-.78v-7.38h6.75c.54 0 .83-.19.83-.78v-5.39c0-.53-.29-.83-.83-.83h-6.75v-3.06h6.75c.54 0 .83-.24.83-.78v-5.39c0-.53-.29-.83-.83-.83h-6.75v-3.06h7.82c.53 0 .78-.24.78-.83z" fill="#f1f1f1"/><path d="m442.97 108.16c-2.28 0-3.89-1.6-3.89-3.89v-12.53c0-2.58 1.41-4.23 4.23-4.23h11.32c2.57 0 4.13 1.75 4.13 4.23v3.69h6.27v-8.41h-9.42c-2.67 0-4.47-1.65-4.47-4.32v-2.62h-8.36c-2.04 0-3.55-1.46-3.55-3.55v-6.22c0-1.75 1.26-3.5 3.5-3.5h18.22c2.67 0 3.94 1.99 3.94 3.98v3.21h9.42c2.19 0 4.28 1.26 4.28 4.13v25.85c0 2.82-2.23 4.18-4.28 4.18zm32.89-30.02c0-.78-.24-1.41-1.55-1.41h-12.19v-5.93c0-.88-.34-1.26-1.17-1.26h-18.22c-.49 0-.73.29-.73.78v6.22c0 .53.24.83.78.83h11.08v5.34c0 1.12.58 1.75 1.75 1.75h12.15v13.75h-11.56v-6.75c0-.87-.49-1.31-1.31-1.31h-11.81c-.87 0-1.26.44-1.26 1.31v12.83c0 .78.34 1.17 1.17 1.17h31.34c1.12 0 1.55-.63 1.55-1.46v-25.85zm-28.76 16.66h4.08v3.94h-4.08z" fill="#f1f1f1"/><path d="m39.47 173.82h-33.37c-2.19 0-4.03-1.46-4.03-4.03v-34.4c0-2.19 1.46-4.03 3.98-4.03h33.43c2.57 0 4.08 1.89 4.08 4.08v34.3c0 2.38-1.7 4.08-4.08 4.08zm0-39.69h-33.42c-.83 0-1.21.44-1.21 1.26v34.4c0 .83.44 1.21 1.26 1.21h33.38c.83 0 1.26-.44 1.26-1.26v-34.3c0-.87-.44-1.31-1.26-1.31zm-27.06 6.56h20.79v8.65h-20.79zm0 15.21h20.79v8.6h-20.79zm17.98-12.39h-15.21v3.06h15.21zm0 15.21h-15.21v3.01h15.21z" fill="#ff7fc6"/><path d="m96.18 166.14c.39 1.12.44 1.85.44 1.99 0 2.19-1.6 3.16-3.4 3.16h-6.71c-1.02 0-2.58-.44-3.3-1.94-.58.29-1.21.44-1.89.44h-1.31v1.46c0 2.09-1.51 3.59-3.6 3.59h-6.36c-1.8 0-3.6-1.21-3.6-3.59v-1.46h-1.41c-.63 0-1.21-.1-1.8-.44-.68 1.46-2.04 1.94-3.21 1.94h-6.7c-1.85 0-3.45-.97-3.45-3.21 0-.1.05-.83.44-1.94l6.56-18.02h-2.14c-1.51 0-3.64-.97-3.64-3.55v-5.83c0-2.04 1.55-3.6 3.64-3.6h11.71v-1.31c0-1.89 1.21-3.64 3.6-3.64h6.36c2.33 0 3.6 1.8 3.6 3.64v1.31h11.71c2.09 0 3.64 1.55 3.64 3.6v5.78c0 2.28-1.8 3.6-3.69 3.6h-2.04l6.56 18.02zm-2.38 1.65-8.16-22.49h6.03c.58 0 .87-.24.87-.78v-5.78c0-.53-.29-.83-.83-.83h-14.48v-4.08c0-.53-.29-.87-.83-.87h-6.36c-.58 0-.78.29-.78.87v4.08h-14.53c-.58 0-.83.29-.83.83v5.83c0 .49.24.73.83.73h6.12l-8.16 22.49c-.05.1-.05.19-.05.29 0 .29.24.44.68.44h7c.39 0 .63-.15.78-.53l7.43-22.4h.73v14.28h-4.23c-.58 0-.83.29-.83.78v5.59c0 .49.24.78.83.78h4.23v4.23c0 .58.24.78.78.78h6.36c.53 0 .83-.19.83-.78v-4.23h4.08c.53 0 .87-.29.87-.83v-5.49c0-.53-.29-.83-.83-.83h-4.13v-14.28h.53l7.68 22.4c.1.39.39.53.78.53h7c.44 0 .63-.15.63-.39 0-.15 0-.24-.05-.34z" fill="#ff7fc6"/><path d="m145.78 152.34c.63.68 1.02 1.55 1.02 2.58v4.08c0 .58-.05 1.07-.29 1.51.29.44.39.92.39 1.51 0 .97-.63 2.43-1.07 3.35s-.92 1.85-1.07 2.23c0 .1-.05.19-.1.24.97.88 2.72 2.62 2.72 3.98 0 1.55-2.38 2.96-3.3 2.96h-7.43c-1.17 0-2.19-.39-3.01-1.26-.34-.34-1.21-1.17-2.28-2.28-.39 1.51-1.65 2.67-3.35 2.72l-19.19.83c-2.77.15-3.59-2.33-3.59-3.55v-1.31c-2.14-.15-2.96-1.51-2.96-3.4v-3.98c0-.63.15-1.21.44-1.75-.29-.49-.44-1.07-.44-1.8v-4.08c0-1.02.39-1.9.97-2.53v-6.51c0-.63.15-1.21.39-1.8-.24-.53-.34-.97-.39-1.31-1.12-.73-1.6-1.89-1.31-3.35l1.36-6.41c.39-1.6 1.7-2.77 3.5-2.77h3.69c.97 0 1.65.1 2.14.39.53-.29 1.17-.39 2.09-.39h4.13c1.55 0 2.48.39 2.96 1.12h3.89c.58 0 1.02.05 1.46.29.68-.63 1.51-.97 2.53-.97h4.13c.49 0 .97.1 1.36.29.58-.49 1.36-.73 2.23-.73h4.86c2.04 0 3.6 1.51 3.6 3.59v17.78c0 .29 0 .53-.05.73zm-2.58 1.8h-13.8v-1.55c0-.58-.29-.83-.83-.83h-1.07v-5.88c0-.78-.44-1.21-1.21-1.21h-6.66v-1.26h7.04c.49 0 .78-.24.78-.83v-2.33c0-.53-.29-.87-.78-.87h-7.04v-1.21h6.02c.54 0 .83-.24.83-.83v-2.33c0-.58-.29-.87-.83-.87h-6.02v-.29c0-.53-.24-.83-.83-.83h-4.13c-.53 0-.78.29-.78.83v.29h-2.82v-.49c.05-.39-.2-.63-.63-.63h-3.69c-.49 0-.63.24-.73.63l-1.41 6.41c0 .34.29.44.78.44h.68v2.09c0 .58.24.83.83.83h7v1.26h-6.66c-.83 0-1.21.39-1.21 1.21v6.17c0 .58.24.78.83.78h3.55c.58 0 .83-.19.83-.83v-3.89h2.67v3.94c0 .58.24.78.78.78h4.13c.58 0 .83-.19.83-.83v-3.89h2.72v1.36h-.73c-.53 0-.83.34-.83.83v1.75c0 .58.24.78.83.78h.29v1.31h-16.08c-.53 0-.83.29-.83.78v4.08c0 .53.29.78.83.78h7.24l-7.48 2.04c-.39.1-.58.34-.58.73v3.98c0 .44.15.58.44.58.1 0 .2 0 .34-.05l7.92-2.92v2.77l-4.91.29c-.53 0-.78.29-.78.83v3.21c0 .49.19.78.68.78l19.14-.83c.53-.05.83-.34.83-.87v-3.6c0-.49-.24-.83-.73-.78l-6.41.34v-2.62c0-.53-.29-.83-.83-.83h-3.4l8.4-3.06h17.44c.58 0 .88-.24.88-.78v-4.08c0-.49-.29-.78-.83-.78zm-32.84-16.32h3.55v1.55h-3.84zm33.96 33.62-4.66-4.37h1.7c.39 0 .68-.15.87-.58l1.8-4.08c.1-.15.1-.29.1-.39 0-.24-.2-.34-.58-.34h-4.96c-.49 0-.68.15-.92.53l-1.02 1.99-2.58-2.48c-.29-.29-.58-.44-.97-.44h-6.7c-.29 0-.49.1-.49.19s.1.24.24.39l9.47 9.72c.29.34.63.44 1.02.44h7.43c.34 0 .49-.05.49-.19s-.05-.19-.24-.39zm-10.54-37.94h-4.13c-.58 0-.83.29-.83.83v10.83c0 .53.24.78.83.78h4.08c.53 0 .87-.24.87-.83v-10.74c0-.58-.34-.87-.83-.87zm8.45-.49h-4.86c-.53 0-.78.29-.78.83v13.56h-3.98c-.58 0-.83.24-.83.83v3.79c0 .63.24.83.83.83h9.18c.83 0 1.21-.39 1.21-1.21v-17.78c0-.53-.29-.83-.78-.83z" fill="#ff7fc6"/><path d="m182.08 173.28c-.92 0-2.09-.24-2.53-1.02-.73.63-1.75 1.02-2.77 1.02h-15.94c-2.48 0-3.94-1.85-3.94-4.03v-32.26c0-3.06 2.28-4.18 4.32-4.18h32.45c2.04 0 4.32 1.12 4.32 4.18v32.26c0 2.19-1.46 4.03-3.93 4.03h-12zm-20.84-37.75c-1.41 0-1.6.63-1.6 1.46v32.26c0 .92.44 1.26 1.21 1.26h16.18c.78 0 1.31-.39 1.31-1.26v-22.45c0-.83-.44-1.21-1.21-1.21h-5.73c-.83 0-1.21.39-1.21 1.17v16.18h-2.96v-19.77h20.5v19.77h-6.41c-.53 0-.83.29-.83.78v6.07c0 .49.29.73.83.73h12.78c.78 0 1.21-.39 1.21-1.26v-32.26c0-.83-.24-1.46-1.6-1.46h-32.45zm23.76 24.68v-14.48h-4.13c.15.19.15.49.15.83v13.89c.19-.15.49-.24.83-.24h3.16z" fill="#f1f1f1"/><path d="m211.67 145.93c-2.33 0-3.5-1.75-3.5-3.55v-6.07c0-2.33 1.75-3.45 3.5-3.45h30.17c2.09 0 3.89 1.41 3.89 3.89v8.26c0 1.46-.58 2.57-1.36 3.5l-5.29 5.83 4.71 5.78h2.23c2.04 0 3.55 1.51 3.55 3.55v6.32c0 2.04-1.51 3.55-3.55 3.55h-5.98c-1.85 0-3.11-.39-4.47-2.09l-5.78-7-6.71 7.38c-1.31 1.46-3.06 1.65-4.13 1.65h-8.21c-1.99 0-3.5-1.46-3.5-3.5v-6.32c0-1.8 1.21-3.55 3.5-3.55h4.91l13.02-14.19h-17zm35.17 17.73c0-.53-.29-.83-.83-.83h-3.5l-7.09-8.6 6.9-7.58c.44-.53.68-.92.68-1.65v-8.26c0-.78-.39-1.17-1.17-1.17h-30.17c-.58 0-.73.24-.73.73v6.07c0 .53.15.83.73.83h21.96v1.31l-16.76 18.32h-6.12c-.54 0-.78.29-.78.83v6.32c0 .53.24.78.78.78h8.21c.97 0 1.36-.15 2.14-.78l8.84-9.72 7.72 9.47c.73.83 1.07 1.07 2.38 1.07h5.98c.53 0 .83-.29.83-.83v-6.32z" fill="#e5ee8c"/><path d="m268.56 154.48c-.05 2.04-1.75 2.82-3.59 2.82h-7.29c-1.7 0-3.5-.87-3.5-3.16v-5.78c0-1.85 1.12-2.87 2.19-3.26v-8.31c0-2.48 1.8-3.89 3.94-3.89h32.45c2.48 0 3.89 1.8 3.89 3.94v32.5c0 2.33-1.51 4.18-4.13 4.18h-31.63c-2.09 0-3.55-1.51-3.55-3.55v-5.78c0-1.51.97-3.3 3.5-3.3h22.59v-2.28h-7.82c-2.24 0-3.45-.97-3.45-3.16v-4.96c0-1.31.39-2.57 2.43-2.57h8.94v-2.48h-14.96v9.04zm25.36-17.64c0-.83-.39-1.21-1.17-1.21h-32.45c-.83 0-1.21.39-1.21 1.17v10.79h-1.41c-.53 0-.78.29-.78.78v5.78c0 .49.24.73.78.73h7.29c1.07 0 1.36-.44 1.36-1.51v-10.15h19.68v6.9h-10.93c-.54 0-.78.34-.78.78v4.52c0 .53.24.78.83.78h10.88v7.19h-25.17c-.53 0-.78.24-.78.83v5.78c0 .58.24.83.83.83h31.63c.92 0 1.41-.44 1.41-1.46v-32.5z" fill="#e5ee8c"/><path d="m346.3 142.92c0 .87-.19 1.55-.58 2.14.34.53.58 1.21.58 2.04v6.61c0 1.89-1.07 3.21-3.16 3.21h-5.1v12.63c0 2.82-1.99 4.08-4.18 4.08h-26.33c-1.75 0-3.5-1.17-3.5-3.45v-6.51c0-1.75 1.26-3.26 3.45-3.26h16.13v-3.5h-16.37c-2.38 0-3.25-1.65-3.25-3.21v-6.61c0-.73.24-1.46.63-2.09-.44-.58-.63-1.36-.63-2.09v-6.7c0-1.7 1.17-3.5 3.45-3.5h35.37c1.75 0 3.5 1.26 3.5 3.5v6.7zm-2.72-6.7c0-.49-.24-.73-.78-.73h-35.37c-.49 0-.73.24-.73.73v6.61c0 .53.24.78.78.78h35.32c.49 0 .78-.24.78-.78zm-36.15 10.11c-.49 0-.73.29-.73.78v6.46c0 .53.24.83.78.83h18.75v8.5h-18.75c-.49 0-.73.29-.73.78v6.51c0 .53.24.73.78.73h26.33c.97 0 1.46-.34 1.46-1.36v-15.16h7.48c.49 0 .78-.29.78-.83v-6.46c0-.49-.24-.78-.78-.78z" fill="#e5ee8c"/><path d="m377.45 156.57v14.04c0 1.65-1.17 3.4-3.35 3.4h-6.46c-2.19 0-3.35-1.75-3.35-3.4v-14.04h-9.04c-1.36 0-3.45-.83-3.45-3.35v-5.83c0-1.65 1.21-3.45 3.4-3.45h19.87v-2.09c0-1.94 1.51-3.4 3.4-3.4h6.22c2.24 0 3.35 1.75 3.35 3.4v10.88c0 2.33-1.51 3.84-3.84 3.84zm7.87-14.72c0-.44-.19-.68-.63-.68h-6.22c-.44 0-.63.24-.63.68v4.81h-22.64c-.44 0-.68.29-.68.73v5.83c0 .49.24.63.73.63h11.76v16.76c0 .49.29.68.63.68h6.46c.34 0 .63-.19.63-.68v-16.76h9.47c.83 0 1.12-.29 1.12-1.12z" fill="#e5ee8c"/><path d="m415.93 155.11c0 2.53-.97 2.92-3.06 2.92h-4.91c-.97 0-1.51-.19-2.09-.73-.58.53-1.21.73-2.14.73h-4.37c-1.6 0-3.25-.88-3.25-3.11v-4.66c-.88-.58-1.51-1.55-1.51-2.87v-4.47c0-1.02.63-3.45 3.3-3.45h5.73c1.02 0 1.55.24 2.24.88.53-.58 1.07-.83 2.09-.83h4.91c1.65 0 3.06.58 3.06 2.92v12.68zm5.98-15.69h6.07c1.94 0 3.4 1.46 3.4 3.4v26.72c0 2.23-1.36 3.98-3.89 3.98h-27.11c-1.94 0-3.4-1.46-3.4-3.4v-5.83c0-1.99 1.46-3.3 3.4-3.3h18.32v-18.56c0-1.94 1.31-3.01 3.21-3.01zm-17.1 3.84c0-.63-.39-1.07-1.07-1.07h-5.98c-.34 0-.58.34-.58.73v4.47c0 .49.24.68.68.68h.87v6.85c0 .44.2.63.63.63h4.76c.39 0 .68-.19.68-.63v-11.66zm23.85-.44c0-.44-.24-.68-.68-.68h-6.07c-.44 0-.63.24-.63.68v20.79h-20.89c-.44 0-.68.19-.68.68v5.83c0 .44.24.68.68.68h27.11c.78 0 1.17-.24 1.17-1.26v-26.72zm-15.11.15c0-.44-.29-.73-.68-.73h-4.91c-.44 0-.63.29-.63.68v12c0 .44.19.63.63.63h4.91c.39 0 .68-.19.68-.63z" fill="#e5ee8c"/><path d="m439.74 137.38c0-1.89 1.26-3.94 3.89-3.94h30.71c2.48 0 3.94 1.8 3.94 3.94v31.87c0 1.65-.73 4.32-4.08 4.32h-30.32c-2.04 0-3.55-1.46-3.55-3.5v-6.07c0-2.04 1.51-3.55 3.55-3.55h20.84v-13.8h-11.81v6.07c0 2.77-2.23 4.08-4.28 4.08h-7.97c-2.04 0-3.5-1.46-3.5-3.5v-5.59c0-2.19 1.51-3.06 2.58-3.35v-7zm35.81 0c0-.78-.39-1.21-1.21-1.21h-30.71c-.78 0-1.17.39-1.17 1.21v9.62h-1.8c-.53 0-.78.19-.78.73v5.59c0 .53.24.78.78.78h7.97c1.07 0 1.55-.53 1.55-1.36v-8.84h17.3v19.29h-23.61c-.54 0-.83.29-.83.83v6.07c0 .53.29.78.83.78h30.32c.97 0 1.36-.39 1.36-1.6v-31.87z" fill="#e5ee8c"/><path d="m28.74 226.06v-11.22h-11.32v5.44c0 2.14-.97 3.21-3.01 3.21h-7c-2.24 0-3.01-1.75-3.01-3.16v-5.25c-2.28-.05-3.45-1.75-3.45-3.55v-6.17c0-1.8 1.21-3.55 3.45-3.6v-1.46c0-2.04 1.46-3.5 3.5-3.5h6.27c2.28 0 3.55 1.8 3.55 3.6v1.36h10.74v-1.46c0-2.04 1.46-3.5 3.5-3.5h6.27c1.99 0 3.5 1.51 3.5 3.5v1.46c2.14.1 3.35 1.85 3.35 3.6v6.17c0 1.75-1.21 3.5-3.35 3.55v19.68c0 1.94-1.17 4.13-4.03 4.13h-29.81c-2.04 0-3.5-1.46-3.5-3.5v-6.07c0-1.02.73-3.25 3.35-3.25h20.99zm13.6-20.7c0-.58-.29-.87-.78-.87h-2.58v-4.18c0-.49-.29-.78-.78-.78h-6.27c-.53 0-.78.29-.78.78v4.18h-16.16v-4.08c0-.58-.29-.87-.83-.87h-6.27c-.58 0-.78.29-.78.78v4.18h-2.67c-.53 0-.78.29-.78.87v6.17c0 .58.24.83.78.83h2.67v7.97c0 .53.24.73.78.73h6.27c.53 0 .83-.19.83-.78v-7.92h16.18v16.13h-23.28c-.53 0-.78.29-.78.83v6.07c0 .53.24.78.78.78h29.78c.97 0 1.31-.58 1.31-1.41v-22.4h2.58c.49 0 .78-.24.78-.83v-6.17z" fill="#f1f1f1"/><path d="m79.71 217.8v18.02c0 2.33-1.8 3.55-3.59 3.55h-6.37c-2.09 0-3.55-1.46-3.55-3.55v-18.02h-12.15c-1.8 0-3.5-1.21-3.5-3.5v-6.36c0-1.8 1.21-3.55 3.5-3.55h25.12v-3.98c0-1.51.92-3.6 3.5-3.6h6.75c2.43 0 3.5 2.09 3.5 3.6v13.26c0 2.14-1.26 4.13-4.03 4.13zm10.49-17.39c0-.58-.29-.87-.78-.87h-6.75c-.58 0-.78.29-.78.87v6.7h-27.84c-.58 0-.78.29-.78.83v6.36c0 .49.19.73.78.73h14.87v20.79c0 .53.24.83.83.83h6.37c.58 0 .83-.29.83-.83v-20.79h11.95c.97 0 1.31-.34 1.31-1.36v-13.26z" fill="#f1f1f1"/><path d="m113.91 223.05v12.53c0 2.04-1.55 3.55-3.55 3.55h-6.32c-1.75 0-3.5-1.21-3.5-3.5v-35.32c0-1.51.97-3.55 3.45-3.55h6.36c2.28 0 3.55 1.75 3.55 3.55v9.33h21.67c2.09 0 3.55 1.46 3.55 3.5v6.41c0 2.04-1.46 3.5-3.55 3.5h-21.67zm22.49-9.91c0-.53-.24-.78-.83-.78h-24.44v-12.05c0-.53-.29-.83-.78-.83h-6.36c-.54 0-.73.29-.73.83v35.32c0 .53.24.73.78.73h6.32c.49 0 .78-.19.78-.78v-15.26h24.44c.58 0 .83-.24.83-.78v-6.41z" fill="#f1f1f1"/><g fill="#80e2f3"><path d="m171.15 207.94c0 .97-.19 1.65-.58 2.14.39.53.58 1.21.58 1.9v5.98c0 2.48-1.36 3.21-3.21 3.21h-17.39c-2.43 0-3.64-1.12-3.64-3.21v-5.98c0-.78.19-1.41.63-1.94-.44-.53-.63-1.21-.63-2.04v-6.02c0-1.99 1.51-3.25 3.5-3.25h17.25c2.23 0 3.5 1.51 3.5 3.25v5.98zm18.71-9.04v4.71c0 2.04-1.46 3.5-3.5 3.5h-1.02v.73c0 .29 0 .58-.1.87 1.21.63 1.85 1.9 1.85 3.16v22.79c0 2.48-1.65 4.13-4.13 4.13h-32.5c-2.04 0-3.5-1.51-3.5-3.55v-6.51c0-2.09 1.46-3.55 3.5-3.55h23.52v-13.31c0-.68.15-1.36.44-1.89-.39-.58-.63-1.31-.63-2.14v-5.05c0-2.04 1.36-3.5 3.35-3.5h1.02v-.44c0-1.99 1.46-3.45 3.5-3.45h4.71c2.04 0 3.5 1.46 3.5 3.5zm-21.43 3.06c0-.49-.24-.78-.78-.78h-17.25c-.53 0-.78.29-.78.78v6.02c0 .53.24.78.78.78h17.25c.49 0 .78-.24.78-.83v-5.98zm0 10.01c0-.49-.24-.78-.78-.78h-17.25c-.53 0-.78.29-.78.78v5.98c0 .58.24.83.78.83h17.25c.49 0 .78-.24.78-.83zm15.94-.1c0-.53-.29-.83-.78-.83h-6.27c-.53 0-.78.29-.78.83v16.03h-26.09c-.53 0-.78.29-.78.83v6.51c0 .58.24.83.78.83h32.5c1.02 0 1.41-.44 1.41-1.41v-22.79zm2.77-12.97c0-.53-.29-.78-.78-.78h-4.71c-.53 0-.78.24-.78.73v3.16h-3.74c-.53 0-.78.24-.78.78v5.05c0 .49.24.73.78.73h4.71c.53 0 .83-.24.83-.73v-3.45h3.69c.49 0 .78-.24.78-.78z"/><path d="m199.23 238.74c-1.99 0-3.4-1.41-3.4-3.35v-5.78c0-1.6 1.07-3.35 3.35-3.35h7.87v-7.82h-7.48c-1.6 0-3.35-1.02-3.35-3.3v-5.78c0-1.6 1.12-3.35 3.3-3.35h27.26c2.28 0 3.4 1.7 3.4 3.4v5.73c0 2.33-1.8 3.3-3.4 3.3h-7.14v7.82h7.53c1.7 0 3.4 1.12 3.4 3.35v5.73c0 1.94-1.46 3.4-3.4 3.4zm28.62-9.13c0-.44-.15-.63-.68-.63h-10.25v-13.26h9.86c.49 0 .63-.1.63-.58v-5.73c0-.53-.15-.68-.63-.68h-27.26c-.34 0-.58.15-.58.63v5.78c0 .49.24.58.63.58h10.2v13.26h-10.59c-.44 0-.58.19-.58.63v5.78c0 .44.15.63.63.63h27.94c.44 0 .68-.19.68-.68z"/><path d="m266.38 230.05v5.39c0 2.09-1.46 3.55-3.5 3.55h-6.51c-2.09 0-3.55-1.46-3.55-3.55v-4.66l-10.11 5.59h-.88c-1.6 0-3.4-1.21-3.4-3.4v-7.09c0-1.89 1.21-2.96 2.19-3.5l11.37-6.22 7.63-3.69-6.85.39h-10.4c-2.09 0-3.55-1.46-3.55-3.5v-6.32c0-2.28 1.8-3.45 3.5-3.45h10.59c.15-1.75 1.6-3.06 3.45-3.06h6.51c1.6 0 3.3 1.12 3.45 3.06h7.87c2.28 0 3.89 1.65 3.89 3.94v10.54c0 1.55-.58 3.01-2.19 3.94l-2.28 1.12 5.1 1.55c1.17.39 2.43 1.46 2.43 3.3v6.56c0 .68-.39 3.35-3.21 3.35-.19 0-.63-.05-1.36-.29l-10.2-3.55zm12-6.07c0-.39-.15-.58-.58-.73l-10.35-3.69 7.09-3.94c.63-.34.83-.78.83-1.55v-10.54c0-.78-.39-1.21-1.17-1.21h-10.54v-2.28c0-.49-.24-.78-.78-.78h-6.51c-.58 0-.78.29-.78.78v2.28h-13.26c-.49 0-.78.24-.78.73v6.32c0 .53.29.78.83.78h24.58v.92l-25.02 13.7c-.58.34-.73.63-.73 1.12v7.09c0 .39.19.63.63.63h.15l13.55-7.43v9.28c0 .58.24.83.83.83h6.51c.53 0 .78-.24.78-.83v-13.8l2.67-1.65s-.05 0-.05.05v6.61c0 .39.44.68.83.73l10.49 3.74h.34c.29 0 .44-.15.44-.58v-6.56z"/><path d="m293.35 238.79c-2.33 0-3.98-1.65-3.98-3.98v-34.01c0-1.99 1.55-3.5 3.55-3.5h6.37c1.99 0 3.5 1.51 3.5 3.5v24.78h12.83v-10.64c0-1.8 1.21-3.55 3.5-3.55h6.17c1.99 0 3.5 1.51 3.5 3.55v19.63c0 2.04-1.21 4.23-4.08 4.23h-31.34zm32.7-23.85c0-.53-.29-.83-.78-.83h-6.17c-.54 0-.78.29-.78.83v13.41h-18.27v-27.55c0-.49-.29-.78-.78-.78h-6.37c-.53 0-.78.29-.78.78v34.01c0 .87.39 1.26 1.21 1.26h31.34c.87 0 1.36-.39 1.36-1.51v-19.63z"/><path d="m340.53 225.19c-2.57 0-3.96-1.8-3.96-3.64v-6.8c0-2.04 1.71-3.59 3.9-3.59h35.22c2.3 0 3.96 1.55 3.96 3.64v6.75c0 1.85-1.39 3.64-3.96 3.64h-35.17zm36.08-10.4c0-.53-.32-.83-.91-.83h-35.22c-.53 0-.86.29-.86.78v6.8c0 .53.32.88.91.88h35.17c.59 0 .91-.34.91-.88z"/><path d="m401.05 219.75c-.05 2.04-1.75 2.82-3.59 2.82h-7.29c-1.7 0-3.5-.87-3.5-3.16v-5.78c0-1.85 1.12-2.87 2.19-3.25v-8.31c0-2.48 1.8-3.89 3.94-3.89h32.45c2.48 0 3.89 1.8 3.89 3.94v32.5c0 2.33-1.51 4.18-4.13 4.18h-31.63c-2.09 0-3.55-1.51-3.55-3.55v-5.78c0-1.51.97-3.3 3.5-3.3h22.59v-2.28h-7.82c-2.23 0-3.45-.97-3.45-3.16v-4.96c0-1.31.39-2.58 2.43-2.58h8.94v-2.48h-14.96v9.04zm25.36-17.64c0-.83-.39-1.21-1.17-1.21h-32.45c-.83 0-1.21.39-1.21 1.17v10.79h-1.41c-.53 0-.78.29-.78.78v5.78c0 .49.24.73.78.73h7.29c1.07 0 1.36-.44 1.36-1.51v-10.15h19.68v6.9h-10.93c-.53 0-.78.34-.78.78v4.52c0 .53.24.78.83.78h10.88v7.19h-25.17c-.53 0-.78.24-.78.83v5.78c0 .58.24.83.83.83h31.63c.92 0 1.41-.44 1.41-1.46v-32.5z"/><path d="m440.61 225.19c-2.57 0-3.96-1.8-3.96-3.64v-6.8c0-2.04 1.71-3.59 3.9-3.59h35.22c2.3 0 3.96 1.55 3.96 3.64v6.75c0 1.85-1.39 3.64-3.96 3.64h-35.17zm36.08-10.4c0-.53-.32-.83-.91-.83h-35.22c-.54 0-.86.29-.86.78v6.8c0 .53.32.88.91.88h35.17c.59 0 .91-.34.91-.88z"/></g></svg>